<mxfile host="app.diagrams.net" modified="2024-04-19T12:20:21.593Z" agent="Mozilla/5.0 (Windows NT 10.0; Win64; x64) AppleWebKit/537.36 (KHTML, like Gecko) Chrome/123.0.0.0 Safari/537.36" etag="_itzl3aHTUiK8dhKWVyT" version="24.2.5" type="device">
  <diagram name="Страница — 1" id="WYx5tZkTLhhT-wdEvUkd">
    <mxGraphModel dx="989" dy="538" grid="1" gridSize="10" guides="1" tooltips="1" connect="1" arrows="1" fold="1" page="1" pageScale="1" pageWidth="827" pageHeight="1169" math="0" shadow="0">
      <root>
        <mxCell id="0" />
        <mxCell id="1" parent="0" />
        <mxCell id="_dssTTDGbep_eDSoPDV1-1" value="API" style="ellipse;whiteSpace=wrap;html=1;" vertex="1" parent="1">
          <mxGeometry x="300" y="440" width="120" height="80" as="geometry" />
        </mxCell>
        <mxCell id="_dssTTDGbep_eDSoPDV1-10" style="edgeStyle=orthogonalEdgeStyle;rounded=0;orthogonalLoop=1;jettySize=auto;html=1;exitX=1;exitY=0.25;exitDx=0;exitDy=0;entryX=0;entryY=0.25;entryDx=0;entryDy=0;" edge="1" parent="1" source="_dssTTDGbep_eDSoPDV1-2" target="_dssTTDGbep_eDSoPDV1-3">
          <mxGeometry relative="1" as="geometry" />
        </mxCell>
        <mxCell id="_dssTTDGbep_eDSoPDV1-2" value="Client" style="rounded=0;whiteSpace=wrap;html=1;" vertex="1" parent="1">
          <mxGeometry x="180" y="570" width="120" height="60" as="geometry" />
        </mxCell>
        <mxCell id="_dssTTDGbep_eDSoPDV1-11" style="edgeStyle=orthogonalEdgeStyle;rounded=0;orthogonalLoop=1;jettySize=auto;html=1;exitX=0;exitY=0.75;exitDx=0;exitDy=0;entryX=1;entryY=0.75;entryDx=0;entryDy=0;" edge="1" parent="1" source="_dssTTDGbep_eDSoPDV1-3" target="_dssTTDGbep_eDSoPDV1-2">
          <mxGeometry relative="1" as="geometry" />
        </mxCell>
        <mxCell id="_dssTTDGbep_eDSoPDV1-3" value="Server" style="rounded=0;whiteSpace=wrap;html=1;" vertex="1" parent="1">
          <mxGeometry x="414" y="570" width="120" height="60" as="geometry" />
        </mxCell>
        <mxCell id="_dssTTDGbep_eDSoPDV1-4" value="DB" style="shape=cylinder3;whiteSpace=wrap;html=1;boundedLbl=1;backgroundOutline=1;size=15;" vertex="1" parent="1">
          <mxGeometry x="660" y="560" width="60" height="80" as="geometry" />
        </mxCell>
        <mxCell id="_dssTTDGbep_eDSoPDV1-6" style="edgeStyle=orthogonalEdgeStyle;rounded=0;orthogonalLoop=1;jettySize=auto;html=1;exitX=0.5;exitY=0;exitDx=0;exitDy=0;entryX=0.003;entryY=0.665;entryDx=0;entryDy=0;entryPerimeter=0;" edge="1" parent="1" source="_dssTTDGbep_eDSoPDV1-2" target="_dssTTDGbep_eDSoPDV1-1">
          <mxGeometry relative="1" as="geometry" />
        </mxCell>
        <mxCell id="_dssTTDGbep_eDSoPDV1-7" style="edgeStyle=orthogonalEdgeStyle;rounded=0;orthogonalLoop=1;jettySize=auto;html=1;exitX=0;exitY=0.5;exitDx=0;exitDy=0;entryX=0.3;entryY=-0.04;entryDx=0;entryDy=0;entryPerimeter=0;" edge="1" parent="1" source="_dssTTDGbep_eDSoPDV1-1" target="_dssTTDGbep_eDSoPDV1-2">
          <mxGeometry relative="1" as="geometry" />
        </mxCell>
        <mxCell id="_dssTTDGbep_eDSoPDV1-8" value="API call" style="text;html=1;align=center;verticalAlign=middle;resizable=0;points=[];autosize=1;strokeColor=none;fillColor=none;" vertex="1" parent="1">
          <mxGeometry x="240" y="498" width="60" height="30" as="geometry" />
        </mxCell>
        <mxCell id="_dssTTDGbep_eDSoPDV1-9" value="API response" style="text;html=1;align=center;verticalAlign=middle;resizable=0;points=[];autosize=1;strokeColor=none;fillColor=none;" vertex="1" parent="1">
          <mxGeometry x="200" y="448" width="100" height="30" as="geometry" />
        </mxCell>
        <mxCell id="_dssTTDGbep_eDSoPDV1-12" value="Data call" style="text;html=1;align=center;verticalAlign=middle;resizable=0;points=[];autosize=1;strokeColor=none;fillColor=none;" vertex="1" parent="1">
          <mxGeometry x="315" y="558" width="70" height="30" as="geometry" />
        </mxCell>
        <mxCell id="_dssTTDGbep_eDSoPDV1-13" value="Data response" style="text;html=1;align=center;verticalAlign=middle;resizable=0;points=[];autosize=1;strokeColor=none;fillColor=none;" vertex="1" parent="1">
          <mxGeometry x="310" y="610" width="100" height="30" as="geometry" />
        </mxCell>
        <mxCell id="_dssTTDGbep_eDSoPDV1-17" style="edgeStyle=orthogonalEdgeStyle;rounded=0;orthogonalLoop=1;jettySize=auto;html=1;exitX=1;exitY=0.25;exitDx=0;exitDy=0;entryX=0.017;entryY=0.313;entryDx=0;entryDy=0;entryPerimeter=0;" edge="1" parent="1" source="_dssTTDGbep_eDSoPDV1-3" target="_dssTTDGbep_eDSoPDV1-4">
          <mxGeometry relative="1" as="geometry" />
        </mxCell>
        <mxCell id="_dssTTDGbep_eDSoPDV1-18" style="edgeStyle=orthogonalEdgeStyle;rounded=0;orthogonalLoop=1;jettySize=auto;html=1;exitX=1;exitY=0.75;exitDx=0;exitDy=0;entryX=-0.011;entryY=0.692;entryDx=0;entryDy=0;entryPerimeter=0;startArrow=classic;startFill=1;endArrow=none;endFill=0;" edge="1" parent="1" source="_dssTTDGbep_eDSoPDV1-3" target="_dssTTDGbep_eDSoPDV1-4">
          <mxGeometry relative="1" as="geometry" />
        </mxCell>
        <mxCell id="_dssTTDGbep_eDSoPDV1-19" value="Data call + storage" style="text;html=1;align=center;verticalAlign=middle;resizable=0;points=[];autosize=1;strokeColor=none;fillColor=none;" vertex="1" parent="1">
          <mxGeometry x="534" y="558" width="120" height="30" as="geometry" />
        </mxCell>
        <mxCell id="_dssTTDGbep_eDSoPDV1-20" value="Data response" style="text;html=1;align=center;verticalAlign=middle;resizable=0;points=[];autosize=1;strokeColor=none;fillColor=none;" vertex="1" parent="1">
          <mxGeometry x="544" y="610" width="100" height="30" as="geometry" />
        </mxCell>
      </root>
    </mxGraphModel>
  </diagram>
</mxfile>
